<?xml version="1.0" standalone="no"?><!DOCTYPE svg PUBLIC "-//W3C//DTD SVG 1.1//EN" "http://www.w3.org/Graphics/SVG/1.1/DTD/svg11.dtd"><svg t="1629781216061" class="icon" viewBox="0 0 1024 1024" version="1.1" xmlns="http://www.w3.org/2000/svg" p-id="1617" width="20" height="20" xmlns:xlink="http://www.w3.org/1999/xlink"><defs><style type="text/css"></style></defs><path d="M721.446307 46.559325 302.577244 46.559325c-51.327892 0-93.086906 41.759014-93.086906 93.086906l0 744.707538c0 51.327892 41.759014 93.086906 93.086906 93.086906l418.869063 0c51.327892 0 93.086906-41.759014 93.086906-93.086906L814.533214 139.646231C814.533214 88.317315 772.774199 46.559325 721.446307 46.559325zM302.577244 93.102266l418.869063 0c25.663434 0 46.542941 20.879507 46.542941 46.543965l0 605.075643L256.034303 744.721874 256.034303 139.646231C256.034303 113.981773 276.91381 93.102266 302.577244 93.102266zM721.446307 930.89671 302.577244 930.89671c-25.663434 0-46.542941-20.879507-46.542941-46.542941l0-93.086906L767.989248 791.266863l0 93.086906C767.989248 910.017203 747.110765 930.89671 721.446307 930.89671z" p-id="1618" fill="#969696"></path><path d="M564.384616 837.809804 459.661462 837.809804c-12.852708 0-23.271471 10.419786-23.271471 23.272495s10.418762 23.272495 23.271471 23.272495l104.723154 0c12.852708 0 23.272495-10.419786 23.272495-23.272495S577.237324 837.809804 564.384616 837.809804z" p-id="1619" fill="#969696"></path></svg>